<svg xmlns="http://www.w3.org/2000/svg" height="24px" viewBox="0 -960 960 960" width="24px" fill="#F3F3F3"><path d="M349-309q-29-29-29-71t29-71q29-29 71-29 17 0 32 5t28 15v-220h160v80H520v220q0 42-29 71t-71 29q-42 0-71-29ZM480-80q-83 0-156-31.5T197-197q-54-54-85.5-127T80-480h80q0 66 25 124.5t68.5 102q43.5 43.5 102 69T480-159q134 0 227-93t93-227q0-134-93-227t-227-93q-89 0-161.5 43.5T204-640h116v80H80v-240h80v80q55-73 138-116.5T480-880q83 0 156 31.5T763-763q54 54 85.5 127T880-480q0 83-31.5 156T763-197q-54 54-127 85.5T480-80Z"/></svg>