<?xml version="1.0" encoding="iso-8859-1"?>
<!-- Generator: Adobe Illustrator 19.0.0, SVG Export Plug-In . SVG Version: 6.00 Build 0)  -->
<svg version="1.1" id="Capa_1" xmlns="http://www.w3.org/2000/svg" xmlns:xlink="http://www.w3.org/1999/xlink" x="0px" y="0px"
	 viewBox="0 0 60 60" style="enable-background:new 0 0 60 60;" xml:space="preserve">
<path style="fill:#7FABDA;stroke:#7383BF;stroke-width:2;stroke-linecap:round;stroke-miterlimit:10;" d="M50.003,21.5
	c-0.115-8.699-7.193-16-15.919-16c-5.559,0-10.779,3.005-13.661,7.336C19.157,11.993,17.636,11.5,16,11.5c-4.418,0-8,3.582-8,8
	c0,0.153,0.014,0.302,0.023,0.454C8.013,20.136,8,20.32,8,20.5c-3.988,1.912-7,6.457-7,11.155C1,38.17,6.33,43.5,12.845,43.5h24.507
	c0.138,0,0.272-0.016,0.408-0.021c0.137,0.005,0.271,0.021,0.408,0.021h9.803C54.037,43.5,59,38.537,59,32.472
	C59,27.101,55.106,22.461,50.003,21.5z"/>
<path style="fill:#7FABDA;stroke:#7383BF;stroke-width:2;stroke-linecap:round;stroke-miterlimit:10;" d="M50.003,21.5
	c0,0-2.535-0.375-5.003,0"/>
<path style="fill:#7FABDA;stroke:#7383BF;stroke-width:2;stroke-linecap:round;stroke-miterlimit:10;" d="M8,19.5
	c0-4.418,3.582-8,8-8s8,3.582,8,8"/>
<line style="fill:none;stroke:#424A60;stroke-width:2;stroke-linecap:round;stroke-miterlimit:10;" x1="31" y1="31.5" x2="31" y2="54.5"/>
<line style="fill:none;stroke:#424A60;stroke-width:2;stroke-linecap:round;stroke-miterlimit:10;" x1="31" y1="54.5" x2="23" y2="46.5"/>
<line style="fill:none;stroke:#424A60;stroke-width:2;stroke-linecap:round;stroke-miterlimit:10;" x1="39" y1="46.5" x2="31" y2="54.5"/>
<g>
</g>
<g>
</g>
<g>
</g>
<g>
</g>
<g>
</g>
<g>
</g>
<g>
</g>
<g>
</g>
<g>
</g>
<g>
</g>
<g>
</g>
<g>
</g>
<g>
</g>
<g>
</g>
<g>
</g>
</svg>
