<?xml version="1.0" encoding="iso-8859-1"?>
<!-- Generator: Adobe Illustrator 19.0.0, SVG Export Plug-In . SVG Version: 6.00 Build 0)  -->
<svg version="1.1" id="Layer_1" xmlns="http://www.w3.org/2000/svg" xmlns:xlink="http://www.w3.org/1999/xlink" x="0px" y="0px"
	 viewBox="0 0 512 512" style="enable-background:new 0 0 512 512;" xml:space="preserve">
<g id="Others">
</g>
<g id="Design">
	<g id="paint">
		<g>
			
				<radialGradient id="SVGID_1_" cx="256" cy="258" r="256" gradientTransform="matrix(1 0 0 -1 0 514)" gradientUnits="userSpaceOnUse">
				<stop  offset="0" style="stop-color:#04BE9E"/>
				<stop  offset="1" style="stop-color:#00A185"/>
			</radialGradient>
			<circle style="fill:url(#SVGID_1_);" cx="256" cy="256" r="256"/>
		</g>
		<g>
			<path style="fill:#94A5A6;" d="M337.543,228.916c-48.986-4.83-51.055-14.489-45.535-46.226s-28.979-60.715-91.762-42.086
				c-62.785,18.628-115.91,72.443-95.213,175.935c0,0,28.287,101.421,125.57,116.6c97.281,15.179,157.994-19.318,180.072-89.002
				C432.754,274.452,386.529,233.745,337.543,228.916z M204.039,214.427c-11.621,0-21.043-9.421-21.043-21.043
				c0-5.381,2.023-10.289,5.346-14.01c-0.992,1.566-1.797,3.263-2.352,5.073c3.783-3.648,8.928-5.896,14.6-5.896
				c11.623,0,21.043,9.421,21.043,21.043c0,2.15-0.324,4.224-0.922,6.177c0.406-0.393,0.793-0.805,1.168-1.229
				C218.158,210.478,211.562,214.427,204.039,214.427z"/>
			<path style="fill:#ECF0F1;" d="M332.713,232.365c-48.984-4.83-51.055-14.489-45.535-46.226s-28.979-60.715-91.762-42.086
				c-62.785,18.628-115.91,72.443-95.211,175.935c0,0,28.287,101.421,125.568,116.6s157.996-19.318,180.074-89.002
				C427.926,277.901,381.699,237.195,332.713,232.365z M204.039,214.427c-11.621,0-21.043-9.421-21.043-21.043
				s9.422-21.043,21.043-21.043c11.623,0,21.045,9.421,21.045,21.043S215.662,214.427,204.039,214.427z"/>
			<circle style="fill:#C6362B;" cx="365.141" cy="300.669" r="31.047"/>
			<circle style="fill:#EE483C;" cx="359.621" cy="297.22" r="15.869"/>
			<g>
				<path style="fill:#32495D;" d="M406.529,67.561l-87.41,155.065l-9.014-5.083C310.105,217.543,373.734,49.867,406.529,67.561z"/>
				<path style="fill:#2A3E4F;" d="M406.529,67.561l-87.41,155.065l9.246,5.211C328.365,227.837,438.646,86.457,406.529,67.561z"/>
				
					<rect x="302.336" y="220.914" transform="matrix(-0.8711 -0.491 0.491 -0.8711 470.1683 591.4255)" style="fill:#F4C342;" width="20.698" height="26.217"/>
				
					<rect x="312.018" y="223.455" transform="matrix(-0.8711 -0.491 0.491 -0.8711 477.3548 598.3921)" style="fill:#F89B36;" width="10.348" height="26.216"/>
				<path style="fill:#94A5A6;" d="M297.23,240.382c0,0-39.801-1.051-40.25,39.087c-0.449,40.139-26.186,29.592-26.186,29.592
					s36.223,35.181,76.146-3.013c34.381-32.892,8.32-55.503,8.32-55.503L297.23,240.382z"/>
				<path style="fill:#7E8C8D;" d="M315.262,250.546l-18.031-10.164c0,0-2.523-0.066-6.305,0.475
					c2.32,2.169,24.102,24.118-8.518,55.323c-16.793,16.067-32.934,19.147-45.996,17.327c11.672,8.066,40.02,21.731,70.529-7.458
					C341.322,273.157,315.262,250.546,315.262,250.546z"/>
			</g>
			<circle style="fill:#F89B36;" cx="323.055" cy="369.663" r="31.047"/>
			<circle style="fill:#F4C342;" cx="317.535" cy="366.213" r="15.869"/>
			<circle style="fill:#1380B6;" cx="251.99" cy="394.501" r="31.047"/>
			<circle style="fill:#1C99D8;" cx="246.472" cy="391.051" r="15.868"/>
			<circle style="fill:#00AF67;" cx="177.478" cy="363.454" r="31.048"/>
			<circle style="fill:#00CA77;" cx="171.958" cy="360.004" r="15.868"/>
		</g>
	</g>
</g>
<g id="SEO_x2F__Web">
</g>
<g id="Finance__x2F__Money">
</g>
<g id="E-Commerce__x2F__Shopping">
</g>
<g id="Strategy">
</g>
<g>
</g>
<g>
</g>
<g>
</g>
<g>
</g>
<g>
</g>
<g>
</g>
<g>
</g>
<g>
</g>
<g>
</g>
<g>
</g>
<g>
</g>
<g>
</g>
<g>
</g>
<g>
</g>
<g>
</g>
</svg>
