<?xml version="1.0" encoding="iso-8859-1"?>
<!-- Generator: Adobe Illustrator 18.0.0, SVG Export Plug-In . SVG Version: 6.00 Build 0)  -->
<!DOCTYPE svg PUBLIC "-//W3C//DTD SVG 1.1//EN" "http://www.w3.org/Graphics/SVG/1.1/DTD/svg11.dtd">
<svg version="1.1" id="Capa_1" xmlns="http://www.w3.org/2000/svg" xmlns:xlink="http://www.w3.org/1999/xlink" x="0px" y="0px"
	 viewBox="0 0 60 60" style="enable-background:new 0 0 60 60;" xml:space="preserve">
<g>
	<path style="fill:#7383BF;" d="M56,32c-0.553,0-1-0.448-1-1c0-0.64-0.024-1.286-0.072-1.922c-0.042-0.551,0.371-1.031,0.922-1.072
		c0.549-0.036,1.03,0.371,1.072,0.922C56.974,29.613,57,30.31,57,31C57,31.552,56.553,32,56,32z M4.034,30.669
		c-0.017,0-0.035,0-0.052-0.001c-0.552-0.028-0.976-0.498-0.948-1.049c0.035-0.691,0.097-1.386,0.183-2.066
		c0.07-0.549,0.58-0.933,1.118-0.866c0.548,0.07,0.936,0.57,0.866,1.118c-0.081,0.63-0.138,1.275-0.17,1.916
		C5.005,30.254,4.563,30.669,4.034,30.669z M55.315,26.055c-0.454,0-0.865-0.311-0.973-0.772c-0.146-0.625-0.317-1.248-0.51-1.852
		c-0.167-0.526,0.124-1.089,0.65-1.256c0.524-0.167,1.088,0.124,1.256,0.65c0.208,0.654,0.394,1.328,0.551,2.003
		c0.126,0.538-0.208,1.076-0.746,1.201C55.468,26.046,55.391,26.055,55.315,26.055z M5.02,24.767c-0.092,0-0.186-0.013-0.278-0.04
		c-0.531-0.153-0.836-0.708-0.683-1.238c0.192-0.665,0.412-1.328,0.654-1.971C4.907,21,5.486,20.739,6,20.933
		c0.517,0.194,0.779,0.771,0.584,1.288c-0.224,0.595-0.427,1.209-0.605,1.824C5.854,24.482,5.454,24.767,5.02,24.767z
		 M53.286,20.423c-0.367,0-0.722-0.203-0.896-0.554c-0.285-0.574-0.596-1.141-0.923-1.685c-0.284-0.473-0.131-1.087,0.343-1.372
		c0.475-0.284,1.088-0.13,1.372,0.343c0.354,0.589,0.689,1.202,0.999,1.823c0.246,0.495,0.045,1.095-0.45,1.341
		C53.588,20.389,53.436,20.423,53.286,20.423z M7.336,19.25c-0.167,0-0.335-0.042-0.49-0.129c-0.481-0.271-0.651-0.881-0.38-1.362
		c0.339-0.601,0.705-1.195,1.089-1.768c0.308-0.458,0.928-0.582,1.388-0.273c0.458,0.308,0.581,0.929,0.273,1.388
		c-0.355,0.529-0.694,1.08-1.008,1.636C8.024,19.067,7.685,19.25,7.336,19.25z M50.017,15.408c-0.288,0-0.573-0.123-0.771-0.361
		c-0.408-0.492-0.84-0.974-1.283-1.431c-0.385-0.396-0.375-1.029,0.021-1.414s1.029-0.376,1.414,0.022
		c0.479,0.494,0.945,1.014,1.387,1.545c0.353,0.425,0.294,1.056-0.131,1.408C50.468,15.333,50.241,15.408,50.017,15.408z
		 M10.856,14.411c-0.242,0-0.484-0.087-0.676-0.264c-0.407-0.374-0.433-1.007-0.06-1.413c0.467-0.508,0.959-1.003,1.463-1.474
		c0.403-0.376,1.036-0.354,1.414,0.049c0.376,0.404,0.354,1.037-0.049,1.414c-0.466,0.435-0.922,0.894-1.354,1.364
		C11.396,14.302,11.126,14.411,10.856,14.411z M45.688,11.271c-0.21,0-0.422-0.066-0.603-0.203
		c-0.507-0.384-1.038-0.755-1.577-1.102c-0.464-0.299-0.598-0.918-0.299-1.382c0.299-0.465,0.919-0.599,1.382-0.299
		c0.581,0.375,1.153,0.774,1.701,1.189c0.44,0.333,0.527,0.96,0.194,1.401C46.29,11.134,45.991,11.271,45.688,11.271z
		 M15.388,10.498c-0.32,0-0.634-0.153-0.828-0.438c-0.311-0.457-0.192-1.079,0.264-1.389c0.572-0.389,1.164-0.76,1.761-1.102
		c0.48-0.275,1.091-0.109,1.365,0.371c0.274,0.479,0.108,1.09-0.371,1.365c-0.552,0.316-1.101,0.659-1.63,1.02
		C15.778,10.441,15.582,10.498,15.388,10.498z M31.667,9h-2c-0.552,0-1-0.448-1-1s0.448-1,1-1h2c0.552,0,1,0.448,1,1
		S32.219,9,31.667,9z M40.536,8.23c-0.135,0-0.273-0.028-0.405-0.086c-0.581-0.257-1.182-0.497-1.785-0.711
		c-0.521-0.185-0.792-0.756-0.608-1.277c0.185-0.52,0.758-0.791,1.277-0.608c0.651,0.231,1.3,0.489,1.927,0.768
		c0.505,0.224,0.733,0.814,0.509,1.319C41.285,8.008,40.919,8.23,40.536,8.23z M20.692,7.723c-0.402,0-0.781-0.245-0.934-0.643
		c-0.198-0.516,0.06-1.094,0.576-1.292c0.645-0.248,1.307-0.472,1.968-0.668c0.527-0.158,1.085,0.145,1.243,0.674
		c0.157,0.529-0.145,1.086-0.674,1.243c-0.611,0.182-1.223,0.389-1.82,0.618C20.933,7.701,20.812,7.723,20.692,7.723z M27,7.667
		c-0.552,0-1-0.448-1-1V6.111c-0.262-0.148-0.455-0.414-0.498-0.735c-0.075-0.547,0.309-1.051,0.856-1.125
		c0.176-0.024,0.352-0.046,0.527-0.066L28,4.056v2.611C28,7.219,27.552,7.667,27,7.667z M34.824,6.454
		c-0.061,0-0.123-0.005-0.186-0.017c-0.401-0.076-0.806-0.141-1.214-0.197C33.295,6.3,33.151,6.333,33,6.333c-0.552,0-1-0.448-1-1
		V4.055l1.115,0.129c0.638,0.074,1.274,0.17,1.892,0.286c0.543,0.102,0.9,0.625,0.798,1.167C35.715,6.119,35.295,6.454,34.824,6.454
		z"/>
	<path style="fill:#7383BF;" d="M27,6H7C6.448,6,6,5.552,6,5s0.448-1,1-1h20c0.552,0,1,0.448,1,1S27.552,6,27,6z"/>
	<path style="fill:#7383BF;" d="M53,6H33c-0.552,0-1-0.448-1-1s0.448-1,1-1h20c0.553,0,1,0.448,1,1S53.553,6,53,6z"/>
	<path style="fill:#EFCE4A;" d="M37,49H23v-4.244C23,41.025,19.975,38,16.244,38H13l17-26l17,26h-3.244
		C40.025,38,37,41.025,37,44.756V49z"/>
	<rect x="23" y="49" style="fill:#7383BF;" width="14" height="5"/>
	<rect x="25" y="54" style="fill:#434C6D;" width="10" height="5"/>
	<g>
		<rect x="1" y="31" style="fill:#434C6D;" width="6" height="6"/>
		<path style="fill:#434C6D;" d="M8,38H0v-8h8V38z M2,36h4v-4H2V36z"/>
	</g>
	<g>
		<rect x="53" y="31" style="fill:#434C6D;" width="6" height="6"/>
		<path style="fill:#434C6D;" d="M60,38h-8v-8h8V38z M54,36h4v-4h-4V36z"/>
	</g>
	<g>
		<rect x="27" y="2" style="fill:#434C6D;" width="6" height="6"/>
		<path style="fill:#434C6D;" d="M34,9h-8V1h8V9z M28,7h4V3h-4V7z"/>
	</g>
	<g>
		<circle style="fill:#26B99A;" cx="4" cy="5" r="3"/>
		<path style="fill:#26B99A;" d="M4,9C1.794,9,0,7.206,0,5s1.794-4,4-4s4,1.794,4,4S6.206,9,4,9z M4,3C2.897,3,2,3.897,2,5
			s0.897,2,2,2s2-0.897,2-2S5.103,3,4,3z"/>
	</g>
	<g>
		<circle style="fill:#26B99A;" cx="56" cy="5" r="3"/>
		<path style="fill:#26B99A;" d="M56,9c-2.206,0-4-1.794-4-4s1.794-4,4-4s4,1.794,4,4S58.206,9,56,9z M56,3c-1.103,0-2,0.897-2,2
			s0.897,2,2,2s2-0.897,2-2S57.103,3,56,3z"/>
	</g>
	<path style="fill:#F7E6A1;" d="M31,33.142V12c0-0.552-0.448-1-1-1s-1,0.448-1,1v21.142c-1.72,0.447-3,2-3,3.858
		c0,2.206,1.794,4,4,4s4-1.794,4-4C34,35.142,32.72,33.589,31,33.142z M30,39c-1.103,0-2-0.897-2-2s0.897-2,2-2s2,0.897,2,2
		S31.103,39,30,39z"/>
</g>
<g>
</g>
<g>
</g>
<g>
</g>
<g>
</g>
<g>
</g>
<g>
</g>
<g>
</g>
<g>
</g>
<g>
</g>
<g>
</g>
<g>
</g>
<g>
</g>
<g>
</g>
<g>
</g>
<g>
</g>
</svg>
