<?xml version="1.0" encoding="utf-8"?>
<!-- Generator: Adobe Illustrator 16.0.0, SVG Export Plug-In . SVG Version: 6.00 Build 0)  -->
<!DOCTYPE svg PUBLIC "-//W3C//DTD SVG 1.1//EN" "http://www.w3.org/Graphics/SVG/1.1/DTD/svg11.dtd">
<svg version="1.1" id="圖層_1" xmlns="http://www.w3.org/2000/svg" xmlns:xlink="http://www.w3.org/1999/xlink" x="0px" y="0px"
	 width="48px" height="48px" viewBox="0 0 48 48" enable-background="new 0 0 48 48" xml:space="preserve">
<g id="圖層_1_1_">
	<rect x="7.262" y="12.935" fill="#727171" width="33.461" height="28.254"/>
	<path fill="#3E3A39" d="M40.019,39.662c0,0.563-0.441,1.018-0.987,1.018H8.914c-0.545,0-0.988-0.454-0.988-1.018v-6.444
		c0-0.563,0.442-1.019,0.988-1.019h30.117c0.547,0,0.987,0.456,0.987,1.019V39.662L40.019,39.662z"/>
	<circle fill="#00A0E9" cx="35.87" cy="36.442" r="1.206"/>
</g>
<g id="圖層_2">
	<polygon fill="#DCDDDD" points="34.555,6.811 13.024,6.811 7.275,12.935 40.737,12.935 	"/>
	<path fill="#3E3A39" d="M39.952,30.181c0,0.563-0.442,1.018-0.987,1.018H8.847c-0.545,0-0.988-0.455-0.988-1.018v-6.445
		c0-0.563,0.442-1.018,0.988-1.018h30.118c0.546,0,0.987,0.455,0.987,1.018V30.181L39.952,30.181z"/>
	<circle fill="#00A0E9" cx="35.803" cy="26.961" r="1.207"/>
	<path fill="#3E3A39" d="M39.918,20.9c0,0.563-0.441,1.018-0.986,1.018H8.813c-0.546,0-0.988-0.455-0.988-1.018v-6.445
		c0-0.563,0.442-1.018,0.988-1.018h30.118c0.545,0,0.986,0.455,0.986,1.018V20.9z"/>
	<circle fill="#00A0E9" cx="35.77" cy="17.68" r="1.207"/>
</g>
</svg>
