<?xml version="1.0" encoding="utf-8"?>
<!-- Generator: Adobe Illustrator 16.0.0, SVG Export Plug-In . SVG Version: 6.00 Build 0)  -->
<!DOCTYPE svg PUBLIC "-//W3C//DTD SVG 1.1//EN" "http://www.w3.org/Graphics/SVG/1.1/DTD/svg11.dtd">
<svg version="1.1" id="圖層_1" xmlns="http://www.w3.org/2000/svg" xmlns:xlink="http://www.w3.org/1999/xlink" x="0px" y="0px"
	 width="48px" height="48px" viewBox="0 0 48 48" enable-background="new 0 0 48 48" xml:space="preserve">
<path fill="none" d="M0,0h48v48H0V0z"/>
<polygon fill="#BFC7BF" points="-54.75,-17.419 -54.75,-17.419 -54.75,-17.419 -54.75,-17.419 -54.75,-17.419 -54.75,-17.419 
	-54.75,-17.419 -54.75,-17.419 "/>
<path fill="#DCDDDD" d="M44.441,33.393c0,2.338-1.652,4.232-3.689,4.232H5.815c-2.038,0-3.69-1.895-3.69-4.232V12.232
	C2.125,9.895,3.777,8,5.815,8h34.937c2.037,0,3.689,1.895,3.689,4.232V33.393z"/>
<path fill="#DCDDDD" d="M48,38c0,1.104-0.896,2-2,2H-2.25c-1.104,0-2-0.896-2-2v-2c0-1.104,0.896-2,2-2H46c1.104,0,2,0.896,2,2V38z"
	/>
<rect x="6.125" y="12" fill="#00A0E9" width="34.875" height="22"/>
<path fill="#3E3A39" d="M48,39c0,0.553-0.447,1-1,1H34.288c-0.553,0-1-0.447-1-1V18.079c0-0.552,0.447-1,1-1H47c0.553,0,1,0.448,1,1
	V39z"/>
<rect x="35.5" y="19.438" fill="#00A0E9" width="10.5" height="17.563"/>
</svg>
