<!--?xml version="1.0" encoding="utf-8"?-->
<!-- Generator: Adobe Illustrator 18.1.1, SVG Export Plug-In . SVG Version: 6.00 Build 0)  -->

<svg version="1.1" id="_x32_" xmlns="http://www.w3.org/2000/svg" xmlns:xlink="http://www.w3.org/1999/xlink" x="0px" y="0px" viewBox="0 0 512 512" style="width: 256px; height: 256px; opacity: 1;" xml:space="preserve">
<style type="text/css">
	.st0{fill:#4B4B4B;}
</style>
<g>
	<path class="st0" d="M481.798,203.986l-85.257-69.984c-15.802-12.967-35.629-20.067-56.089-20.067H256h-84.457
		c-20.452,0-40.28,7.1-56.085,20.067l-85.258,69.984C11.938,217.201,0.012,238.638,0,262.916v62.38
		c0.016,40.199,32.579,72.762,72.77,72.77H256h183.23c40.191-0.008,72.762-32.571,72.77-72.77v-62.38
		C511.992,238.638,500.066,217.201,481.798,203.986z M41.584,262.916c0.008-8.677,3.458-16.345,9.137-22.044
		c5.703-5.676,13.372-9.134,22.049-9.141H256h183.23c8.677,0.008,16.345,3.466,22.053,9.141c5.675,5.699,9.125,13.367,9.134,22.044
		v62.38c-0.008,8.677-3.458,16.345-9.134,22.052c-5.708,5.676-13.376,9.126-22.053,9.134H256H72.77
		c-8.677-0.008-16.346-3.458-22.049-9.134c-5.679-5.707-9.129-13.375-9.137-22.052V262.916z" style="fill: rgb(75, 75, 75);"></path>
	<path class="st0" d="M326.168,319.444c12.924,0,23.393-10.478,23.393-23.39c0-12.912-10.47-23.389-23.393-23.389
		c-12.919,0-23.394,10.478-23.394,23.389C302.775,308.966,313.249,319.444,326.168,319.444z" style="fill: rgb(75, 75, 75);"></path>
	<path class="st0" d="M404.578,319.444c12.912,0,23.39-10.478,23.39-23.39c0-12.912-10.478-23.389-23.39-23.389
		c-12.919,0-23.397,10.478-23.397,23.389C381.181,308.966,391.659,319.444,404.578,319.444z" style="fill: rgb(75, 75, 75);"></path>
</g>
</svg>
