<?xml version="1.0" encoding="utf-8"?>
<!-- Generator: Adobe Illustrator 16.0.0, SVG Export Plug-In . SVG Version: 6.00 Build 0)  -->
<!DOCTYPE svg PUBLIC "-//W3C//DTD SVG 1.1//EN" "http://www.w3.org/Graphics/SVG/1.1/DTD/svg11.dtd">
<svg version="1.1" id="圖層_1" xmlns="http://www.w3.org/2000/svg" xmlns:xlink="http://www.w3.org/1999/xlink" x="0px" y="0px"
	 width="48px" height="48px" viewBox="0 0 48 48" enable-background="new 0 0 48 48" xml:space="preserve">
<path fill="none" stroke="#1B2C2E" stroke-width="4" stroke-miterlimit="10" d="M32.208,25.51v-9.387v0.197
	c0-4.538-3.671-8.209-8.208-8.209c-4.428,0-8.012,3.583-8.012,8.012v9.387"/>
<path fill="#E5BD64" d="M35.772,37.479c0,2.117-1.932,3.836-4.313,3.836H16.542c-2.382,0-4.313-1.719-4.313-3.836V25.734
	c0-2.119,1.931-3.836,4.313-3.836h14.917c2.382,0,4.313,1.718,4.313,3.836V37.479z"/>
<g>
	<circle fill="#455A64" cx="24" cy="29.518" r="2.752"/>
	<path fill="#455A64" d="M25.555,30.623c0-0.328,1.047-1.939,0.719-1.939h-4.546c-0.327,0,0.75,1.74,0.75,2.068l-1.342,4.006
		c0,0.328,0.266,0.592,0.593,0.592h4.546c0.328,0,0.593-0.264,0.593-0.592L25.555,30.623z"/>
</g>
</svg>
