<?xml version="1.0" encoding="utf-8"?>
<!-- Generator: Adobe Illustrator 16.0.0, SVG Export Plug-In . SVG Version: 6.00 Build 0)  -->
<!DOCTYPE svg PUBLIC "-//W3C//DTD SVG 1.1//EN" "http://www.w3.org/Graphics/SVG/1.1/DTD/svg11.dtd">
<svg version="1.1" id="圖層_1" xmlns="http://www.w3.org/2000/svg" xmlns:xlink="http://www.w3.org/1999/xlink" x="0px" y="0px"
	 width="48px" height="48px" viewBox="0 0 48 48" enable-background="new 0 0 48 48" xml:space="preserve">
<circle fill="#00A0E9" cx="32.305" cy="14.798" r="6.823"/>
<path fill="#00A0E9" d="M31.926,36.73c5.529,0,10.002-0.756,10.002-1.69c0-7.195-3-13.02-6.707-13.02
	c0,1.108-1.357,2.005-3.039,2.005c-1.598,0-2.893-0.896-2.893-2.005c-3.652,0-6.609,5.824-6.609,13.02
	c0,0.935,4.166,1.69,9.316,1.69"/>
<circle fill="#3E3A39" cx="16.595" cy="19.13" r="6.823"/>
<path fill="#3E3A39" d="M16.219,41.063c5.526,0,9.998-0.756,9.998-1.69c0-7.195-2.997-13.02-6.704-13.02
	c0,1.107-1.359,2.005-3.038,2.005c-1.599,0-2.893-0.897-2.893-2.005c-3.655,0-6.611,5.824-6.611,13.02
	c0,0.935,4.167,1.69,9.315,1.69"/>
</svg>
