<?xml version="1.0" encoding="utf-8"?>
<!-- Generator: Adobe Illustrator 16.0.0, SVG Export Plug-In . SVG Version: 6.00 Build 0)  -->
<!DOCTYPE svg PUBLIC "-//W3C//DTD SVG 1.1//EN" "http://www.w3.org/Graphics/SVG/1.1/DTD/svg11.dtd">
<svg version="1.1" id="圖層_1" xmlns="http://www.w3.org/2000/svg" xmlns:xlink="http://www.w3.org/1999/xlink" x="0px" y="0px"
	 width="128px" height="128px" viewBox="0 0 128 128" enable-background="new 0 0 128 128" xml:space="preserve">
<rect x="12.458" y="81.333" fill="#727171" width="102.833" height="29.167"/>
<polygon fill="#DCDDDD" points="96.374,40.167 30.208,40.167 12.542,81.333 115.374,81.333 "/>
<path fill="#3E3A39" d="M113.125,105.811c0,1.729-1.357,3.127-3.034,3.127H17.535c-1.676,0-3.035-1.396-3.035-3.127V86.002
	c0-1.729,1.359-3.127,3.035-3.127h92.556c1.677,0,3.034,1.398,3.034,3.127V105.811z"/>
<circle fill="#00A0E9" cx="100.375" cy="95.916" r="3.708"/>
<path fill="#FFFFFF" d="M84.535,64.426c-5.24,5.244-14.758,4.226-21.258-2.275c-6.499-6.498-7.52-16.018-2.276-21.26
	c5.242-5.24,14.761-4.221,21.258,2.276C88.76,49.667,89.781,59.186,84.535,64.426z"/>
<rect x="66.415" y="19.963" transform="matrix(0.7071 -0.7071 0.7071 0.7071 0.1325 73.5299)" fill="#00A0E9" width="44.814" height="33.285"/>
</svg>
