<?xml version="1.0" encoding="utf-8"?>
<!-- Generator: Adobe Illustrator 16.0.0, SVG Export Plug-In . SVG Version: 6.00 Build 0)  -->
<!DOCTYPE svg PUBLIC "-//W3C//DTD SVG 1.1//EN" "http://www.w3.org/Graphics/SVG/1.1/DTD/svg11.dtd">
<svg version="1.1" xmlns="http://www.w3.org/2000/svg" xmlns:xlink="http://www.w3.org/1999/xlink" x="0px" y="0px" width="128px"
	 height="128px" viewBox="0 0 128 128" enable-background="new 0 0 128 128" xml:space="preserve">
<g id="圖層_1">
	<rect x="12.458" y="81.333" fill="#727171" width="102.833" height="29.167"/>
	<polygon fill="#DCDDDD" points="96.374,40.167 30.208,40.167 12.542,81.333 115.374,81.333 	"/>
	<path fill="#3E3A39" d="M113.125,105.811c0,1.728-1.358,3.127-3.034,3.127H17.535c-1.676,0-3.035-1.399-3.035-3.127V86.002
		c0-1.728,1.359-3.127,3.035-3.127h92.556c1.676,0,3.034,1.399,3.034,3.127V105.811z"/>
	<circle fill="#00A0E9" cx="100.375" cy="95.916" r="3.708"/>
</g>
<g id="圖層_2">
</g>
<g id="圖層_3">
	<circle fill="#3E3A39" cx="94.833" cy="36" r="25.5"/>
	<g>
		<path fill="#F7F8F8" d="M91.648,40.194v-1.445c0-0.664,0.068-1.266,0.205-1.807c0.137-0.54,0.346-1.055,0.625-1.543
			c0.28-0.488,0.642-0.963,1.084-1.426c0.443-0.462,0.977-0.94,1.602-1.436c0.547-0.43,1.01-0.813,1.387-1.152
			c0.378-0.338,0.684-0.674,0.918-1.006s0.404-0.68,0.508-1.045c0.104-0.364,0.156-0.788,0.156-1.27c0-0.742-0.25-1.354-0.752-1.836
			c-0.501-0.481-1.266-0.723-2.295-0.723c-0.898,0-1.865,0.189-2.9,0.566c-1.035,0.378-2.105,0.84-3.213,1.387l-1.992-4.316
			c0.561-0.325,1.169-0.635,1.826-0.928c0.658-0.293,1.342-0.553,2.051-0.781c0.71-0.228,1.43-0.407,2.158-0.537
			c0.729-0.13,1.445-0.195,2.148-0.195c1.328,0,2.526,0.16,3.594,0.479c1.068,0.319,1.973,0.785,2.715,1.396
			c0.742,0.612,1.313,1.354,1.709,2.227c0.398,0.873,0.596,1.869,0.596,2.988c0,0.82-0.09,1.553-0.273,2.197
			c-0.182,0.645-0.452,1.244-0.811,1.797c-0.357,0.554-0.807,1.087-1.348,1.602c-0.54,0.515-1.168,1.058-1.885,1.631
			c-0.547,0.43-0.992,0.804-1.338,1.123c-0.345,0.319-0.615,0.622-0.811,0.908c-0.195,0.287-0.328,0.583-0.4,0.889
			c-0.071,0.306-0.107,0.667-0.107,1.084v1.172H91.648z M91.004,46.874c0-0.612,0.088-1.129,0.264-1.553
			c0.176-0.423,0.42-0.765,0.732-1.025c0.313-0.26,0.681-0.449,1.104-0.566c0.424-0.117,0.876-0.176,1.357-0.176
			c0.456,0,0.889,0.059,1.299,0.176s0.771,0.306,1.084,0.566c0.313,0.261,0.561,0.603,0.742,1.025
			c0.183,0.423,0.273,0.941,0.273,1.553c0,0.586-0.091,1.087-0.273,1.504c-0.182,0.417-0.43,0.762-0.742,1.035
			s-0.674,0.472-1.084,0.596c-0.41,0.124-0.843,0.186-1.299,0.186c-0.481,0-0.934-0.062-1.357-0.186
			c-0.423-0.124-0.791-0.322-1.104-0.596s-0.557-0.618-0.732-1.035C91.092,47.961,91.004,47.459,91.004,46.874z"/>
	</g>
</g>
</svg>
