<?xml version="1.0" encoding="utf-8"?>
<!-- Generator: Adobe Illustrator 16.0.0, SVG Export Plug-In . SVG Version: 6.00 Build 0)  -->
<!DOCTYPE svg PUBLIC "-//W3C//DTD SVG 1.1//EN" "http://www.w3.org/Graphics/SVG/1.1/DTD/svg11.dtd">
<svg version="1.1" id="圖層_1" xmlns="http://www.w3.org/2000/svg" xmlns:xlink="http://www.w3.org/1999/xlink" x="0px" y="0px"
	 width="128px" height="128px" viewBox="0 0 128 128" enable-background="new 0 0 128 128" xml:space="preserve">
<g id="圖層_1_1_">
	<rect x="12.563" y="32.823" fill="#727171" width="102.833" height="86.83"/>
	<path fill="#3E3A39" d="M113.23,114.962c0,1.729-1.357,3.127-3.035,3.127H17.64c-1.676,0-3.035-1.397-3.035-3.127v-19.81
		c0-1.729,1.359-3.127,3.035-3.127h92.555c1.679,0,3.035,1.398,3.035,3.127V114.962L113.23,114.962z"/>
	<circle fill="#00A0E9" cx="100.48" cy="105.065" r="3.708"/>
</g>
<g id="圖層_2">
	<polygon fill="#DCDDDD" points="96.438,14.002 30.271,14.002 12.604,32.823 115.438,32.823 	"/>
	<path fill="#3E3A39" d="M113.023,85.822c0,1.729-1.357,3.127-3.035,3.127H17.433c-1.676,0-3.035-1.398-3.035-3.127V66.014
		c0-1.729,1.359-3.126,3.035-3.126h92.555c1.679,0,3.035,1.398,3.035,3.126V85.822L113.023,85.822z"/>
	<circle fill="#00A0E9" cx="100.273" cy="75.929" r="3.708"/>
	<path fill="#3E3A39" d="M112.92,57.3c0,1.729-1.357,3.127-3.035,3.127H17.329c-1.676,0-3.035-1.398-3.035-3.127V37.492
		c0-1.729,1.359-3.127,3.035-3.127h92.556c1.678,0,3.035,1.398,3.035,3.127V57.3z"/>
	<circle fill="#00A0E9" cx="100.17" cy="47.406" r="3.708"/>
</g>
<circle fill="#FF1D1D" cx="99.582" cy="98.738" r="23.667"/>
<g>
	<path fill="#FFFFFF" d="M99.582,116.816c-0.956,0-1.774-0.337-2.456-1.011c-0.682-0.673-1.022-1.512-1.022-2.515
		c0-0.971,0.333-1.786,0.999-2.444s1.492-0.986,2.479-0.986s1.813,0.328,2.479,0.986s0.999,1.474,0.999,2.444
		c0,1.003-0.333,1.842-0.999,2.515C101.396,116.479,100.569,116.816,99.582,116.816z M97.89,104.783l-0.563-22.984h4.418
		l-0.563,22.984H97.89z"/>
</g>
</svg>
