<svg xmlns="http://www.w3.org/2000/svg" height="24px" viewBox="0 -960 960 960" width="24px" fill="#F3F3F3"><path d="M532.5-427.62q21.5-21.62 21.5-52.5t-21.62-52.38q-21.62-21.5-52.5-21.5t-52.38 21.62q-21.5 21.62-21.5 52.5t21.62 52.38q21.62 21.5 52.5 21.5t52.38-21.62Zm-194 89.12Q280-397 280-480t58.5-141.5Q397-680 480-680t141.5 58.5Q680-563 680-480t-58.5 141.5Q563-280 480-280t-141.5-58.5ZM223-417H17v-126h206v126Zm720 0H737v-126h206v126ZM417-737v-206h126v206H417Zm0 720v-206h126v206H417ZM255-616 123-745l88-93 130 130-86 92Zm494 494L618-253l86-89 133 127-88 93ZM618-704l127-133 93 88-130 130-90-85ZM122-211l131-131 89 86-127 133-93-88Zm358-269Z"/></svg>