<?xml version="1.0" encoding="utf-8"?>
<!-- Generator: Adobe Illustrator 16.0.0, SVG Export Plug-In . SVG Version: 6.00 Build 0)  -->
<!DOCTYPE svg PUBLIC "-//W3C//DTD SVG 1.1//EN" "http://www.w3.org/Graphics/SVG/1.1/DTD/svg11.dtd">
<svg version="1.1" id="圖層_1" xmlns="http://www.w3.org/2000/svg" xmlns:xlink="http://www.w3.org/1999/xlink" x="0px" y="0px"
	 width="48px" height="48px" viewBox="0 0 48 48" enable-background="new 0 0 48 48" xml:space="preserve">
<path fill="#FFFCFF" d="M7,40c-0.767,0-1.458-0.309-2.075-0.925S4,37.767,4,37V11c0-0.767,0.308-1.458,0.925-2.075S6.233,8,7,8
	h14.05l3,3H41c0.767,0,1.459,0.308,2.075,0.925S44,13.233,44,14H7v23l5.1-20H47l-5.35,20.7c-0.2,0.8-0.566,1.384-1.101,1.75
	C40.017,39.816,39.334,40,38.5,40H7z"/>
</svg>
