<?xml version="1.0" encoding="utf-8"?>
<!-- Generator: Adobe Illustrator 16.0.0, SVG Export Plug-In . SVG Version: 6.00 Build 0)  -->
<!DOCTYPE svg PUBLIC "-//W3C//DTD SVG 1.1//EN" "http://www.w3.org/Graphics/SVG/1.1/DTD/svg11.dtd">
<svg version="1.1" id="圖層_1" xmlns="http://www.w3.org/2000/svg" xmlns:xlink="http://www.w3.org/1999/xlink" x="0px" y="0px"
	 width="48px" height="48px" viewBox="0 0 48 48" enable-background="new 0 0 48 48" xml:space="preserve">
<path fill="#FFFFFC" d="M32,40c-1.633,0-3.033-0.559-4.2-1.675s-1.75-2.476-1.75-4.075s0.559-2.959,1.675-4.075
	C28.842,29.059,30.2,28.5,31.8,28.5c0.534,0,1.059,0.05,1.575,0.15c0.517,0.1,1.025,0.266,1.525,0.5V12H44v3.55h-6.1V34.3
	c0,1.567-0.575,2.909-1.726,4.025C35.025,39.441,33.633,40,32,40z M6,31.5v-3h15.3v3H6z M6,23.25v-3h23.65v3H6z M6,15v-3h23.65v3H6z
	"/>
</svg>
