<svg xmlns="http://www.w3.org/2000/svg" height="40px" viewBox="0 -960 960 960" width="40px" fill="#434343"><path d="M175.32-175.32q-21.46-21.46-21.46-52.36t21.46-52.27q21.46-21.38 52.36-21.38t52.27 21.38q21.38 21.37 21.38 52.27 0 30.9-21.38 52.36-21.37 21.46-52.27 21.46-30.9 0-52.36-21.46Zm0-252.41q-21.46-21.34-21.46-52.2 0-30.85 21.46-52.27t52.36-21.42q30.9 0 52.27 21.35 21.38 21.35 21.38 52.2t-21.38 52.27q-21.37 21.42-52.27 21.42-30.9 0-52.36-21.35Zm0-252.32q-21.46-21.37-21.46-52.27 0-30.9 21.46-52.36t52.36-21.46q30.9 0 52.27 21.46 21.38 21.46 21.38 52.36t-21.38 52.27q-21.37 21.38-52.27 21.38-30.9 0-52.36-21.38Zm252.48 0q-21.42-21.37-21.42-52.27 0-30.9 21.35-52.36 21.34-21.46 52.2-21.46 30.85 0 52.27 21.46t21.42 52.36q0 30.9-21.35 52.27-21.35 21.38-52.2 21.38t-52.27-21.38Zm252.25 0q-21.38-21.37-21.38-52.27 0-30.9 21.38-52.36 21.37-21.46 52.27-21.46 30.9 0 52.36 21.46t21.46 52.36q0 30.9-21.46 52.27-21.46 21.38-52.36 21.38t-52.27-21.38Zm-252 252.03q-21.67-21.64-21.67-51.95 0-30.31 21.64-51.98 21.64-21.67 51.95-21.67 30.31 0 51.98 21.64 21.67 21.64 21.67 51.95 0 30.31-21.64 51.98-21.64 21.67-51.95 21.67-30.31 0-51.98-21.64Zm90.83 274.16v-128.58L741-503.56q9.56-9.76 21.28-14.02 11.71-4.25 23.59-4.25 12.64 0 24.41 4.78 11.76 4.77 21.3 14.49l37 37q9.2 9.59 13.74 21.3 4.54 11.72 4.54 23.43 0 12.04-4.7 24.09-4.69 12.04-14.25 21.76L647.46-153.86H518.88Zm268.9-229.9 35.09-37.09-37-37-36.09 36.09 38 38Z"/></svg>