<svg xmlns="http://www.w3.org/2000/svg" height="48px" viewBox="0 -960 960 960" width="48px" fill="#F3F3F3"><path d="M360-860v-60h240v60H360Zm90 447h60v-230h-60v230ZM340.5-109.5Q275-138 226-187t-77.5-114.5Q120-367 120-441t28.5-139.5Q177-646 226-695t114.5-77.5Q406-801 480-801q67 0 126 22.5T711-716l51-51 42 42-51 51q36 40 61.5 97T840-441q0 74-28.5 139.5T734-187q-49 49-114.5 77.5T480-81q-74 0-139.5-28.5Zm352-119Q780-316 780-441t-87.5-212.5Q605-741 480-741t-212.5 87.5Q180-566 180-441t87.5 212.5Q355-141 480-141t212.5-87.5ZM480-440Z"/></svg>