<svg id="Capa_1" enable-background="new 0 0 470.674 470.674" height="512" viewBox="0 0 470.674 470.674" width="512" xmlns="http://www.w3.org/2000/svg"><g><path d="m398.444 118.266v290.582c.302 5.627-4.014 10.434-9.641 10.736-.006 0-.011.001-.017.001h-379.114c-5.625-.312-9.942-5.11-9.658-10.737v-347.034c-.264-5.62 4.042-10.407 9.658-10.737h119.097c3.411.065 6.519 1.977 8.115 4.993l29.652 51.488h222.251c5.612.312 9.924 5.092 9.657 10.708z" fill="#eab54e"/><path d="m470.018 191.636-68.165 217.16c-1.698 6.211-7.246 10.59-13.681 10.8h-374.541c-5.848-.465-10.212-5.583-9.747-11.431.077-.973.289-1.931.628-2.847l67.551-215.128c2.026-7.373 8.616-12.567 16.258-12.815h372.606c5.847.484 10.194 5.616 9.71 11.463-.079.957-.287 1.898-.619 2.798z" fill="#f6c863"/></g></svg>