<svg xmlns="http://www.w3.org/2000/svg" height="48px" viewBox="0 -960 960 960" width="48px" fill="#F3F3F3"><path d="m510-456 212-141-212-141v282Zm160 267h126q5 36-22.5 61T710-100L211-40q-39.4 4-69.2-19Q112-82 106-121L44-600q-6-38.95 18.57-70.44Q87.14-701.93 127-707l64-6v95l-54 5 62.63 481L670-189Zm-325-60q-39.05 0-66.52-27.77Q251-304.54 251-344v-483q0-39.05 27.48-66.53Q305.95-921 345-921h484q39.46 0 67.23 27.47Q924-866.05 924-827v483q0 39.46-27.77 67.23Q868.46-249 829-249H345Zm0-95h484v-483H345v483Zm242-242ZM200-132Z"/></svg>