<svg xmlns="http://www.w3.org/2000/svg" height="48px" viewBox="0 -960 960 960" width="48px" fill="#434343"><path d="M97.5-97.6Q55-140.2 55-201.6T97.57-306q42.57-43 104.43-43 17 0 33 4.03T266-334l167-166v-119q-44-15-72-52.49T333-758q0-61.86 42.6-104.93Q418.2-906 480.1-906t104.4 43.07Q627-819.86 627-758q0 49.02-28 86.51T527-619v119l167 166q15.45-6.94 31.45-10.97T758-349q61.86 0 104.93 43.1Q906-262.8 906-201.4T862.9-97.5Q819.8-55 758.4-55T654-97.57Q611-140.14 611-202q0-17 4.03-33T626-266L480-413 334-266q6.94 15 10.97 31t4.03 33q0 61.86-43.1 104.43Q262.8-55 201.4-55T97.5-97.6Zm698-66.78q15.5-15.38 15.5-37.5 0-22.12-15.38-37.62-15.38-15.5-37.5-15.5Q736-255 721-239.62q-15 15.38-15 37.5 0 22.12 14.88 37.62 14.88 15.5 37 15.5 22.12 0 37.62-15.38Zm-278-556.5q15.5-14.88 15.5-37 0-22.12-15.38-37.62-15.38-15.5-37.5-15.5-22.12 0-37.62 15.38-15.5 15.38-15.5 37.5Q427-736 442.38-721q15.38 15 37.5 15 22.12 0 37.62-14.88Zm-278 556.5q15.5-15.38 15.5-37.5 0-22.12-15.38-37.62-15.38-15.5-37.5-15.5-22.12 0-37.62 15.38-15.5 15.38-15.5 37.5 0 22.12 15.38 37.62 15.38 15.5 37.5 15.5 22.12 0 37.62-15.38Z"/></svg>