<?xml version="1.0" encoding="utf-8"?>
<svg version="1.1" xmlns="http://www.w3.org/2000/svg" width="256px" height="256px" viewBox="0 0 256 256">
<!-- Default desktop icon of a container app: padded squircle like the generated desktop icons -->
<defs>
	<linearGradient id="plate" x1="0" y1="0" x2="0" y2="1">
		<stop offset="0" stop-color="#4a9af2"/>
		<stop offset="1" stop-color="#2565c9"/>
	</linearGradient>
</defs>
<rect x="38" y="38" width="180" height="180" rx="44" fill="url(#plate)"/>
<rect x="70" y="72" width="116" height="84" rx="10" fill="#ffffff"/>
<rect x="70" y="72" width="116" height="20" rx="10" fill="#dbe8fb"/>
<rect x="70" y="84" width="116" height="8" fill="#dbe8fb"/>
<circle cx="83" cy="82" r="3.5" fill="#2565c9"/>
<circle cx="94" cy="82" r="3.5" fill="#2565c9" opacity="0.6"/>
<circle cx="105" cy="82" r="3.5" fill="#2565c9" opacity="0.35"/>
<circle cx="128" cy="124" r="20" fill="none" stroke="#2565c9" stroke-width="5"/>
<path d="M108 124h40M128 104c-7 6-10 13-10 20s3 14 10 20M128 104c7 6 10 13 10 20s-3 14-10 20" fill="none" stroke="#2565c9" stroke-width="4" stroke-linecap="round"/>
<rect x="80" y="166" width="28" height="18" rx="4" fill="#bcd7fb"/>
<rect x="114" y="166" width="28" height="18" rx="4" fill="#e8f1fe"/>
<rect x="148" y="166" width="28" height="18" rx="4" fill="#bcd7fb"/>
</svg>
