<svg xmlns="http://www.w3.org/2000/svg" viewBox="0 0 64 64" width="64" height="64">
<defs><linearGradient id="frame" x1="0" y1="0" x2="0" y2="1"><stop offset="0" stop-color="#5aa9ff"/><stop offset="1" stop-color="#1e6fe0"/></linearGradient><linearGradient id="screen" x1="0" y1="0" x2="0" y2="1"><stop offset="0" stop-color="#9ad8ff"/><stop offset="1" stop-color="#3d8ef0"/></linearGradient><linearGradient id="stand" x1="0" y1="0" x2="0" y2="1"><stop offset="0" stop-color="#b0bec5"/><stop offset="1" stop-color="#78909c"/></linearGradient></defs>
<path d="M27 44h10l2 8H25z" fill="url(#stand)"/><rect x="19" y="51" width="26" height="5" rx="2.5" fill="#78909c"/><rect x="5" y="9" width="54" height="37" rx="5" fill="url(#frame)"/><rect x="9" y="13" width="46" height="29" rx="2.5" fill="url(#screen)"/><path d="M9 36l15-13 10 9 6-5 15 12v1a2.5 2.5 0 0 1-2.5 2.5h-41A2.5 2.5 0 0 1 9 40z" fill="#ffffff" opacity="0.25"/>
</svg>
