<svg xmlns="http://www.w3.org/2000/svg" viewBox="0 0 96 96" width="96" height="96" role="img" aria-label="AGI Forge">
  <defs>
    <linearGradient id="bg" x1="0" y1="0" x2="0" y2="1">
      <stop offset="0" stop-color="#2d2d2d"/>
      <stop offset="1" stop-color="#1e1e1e"/>
    </linearGradient>
    <linearGradient id="spark" x1="0" y1="0" x2="1" y2="1">
      <stop offset="0" stop-color="#4ec94e"/>
      <stop offset="1" stop-color="#27e0a0"/>
    </linearGradient>
  </defs>

  <!-- terminal body -->
  <rect x="6" y="6" width="84" height="84" rx="18" fill="url(#bg)" stroke="#3c3c3c" stroke-width="2"/>
  <rect x="6" y="6" width="84" height="22" rx="18" fill="#252526"/>
  <rect x="6" y="18" width="84" height="10" fill="#252526"/>

  <!-- title-bar dots -->
  <circle cx="20" cy="17" r="3.2" fill="#f44747"/>
  <circle cx="31" cy="17" r="3.2" fill="#dcdcaa"/>
  <circle cx="42" cy="17" r="3.2" fill="#4ec94e"/>

  <!-- prompt chevron + cursor -->
  <path d="M22 46 L34 56 L22 66" fill="none" stroke="url(#spark)" stroke-width="6"
        stroke-linecap="round" stroke-linejoin="round"/>
  <rect x="40" y="60" width="22" height="6" rx="3" fill="#d4d4d4"/>

  <!-- AI spark -->
  <path d="M70 36 L73.4 45.6 L83 49 L73.4 52.4 L70 62 L66.6 52.4 L57 49 L66.6 45.6 Z"
        fill="url(#spark)"/>
  <circle cx="80" cy="34" r="3" fill="#27e0a0"/>
</svg>
