<?xml version="1.0" encoding="utf-8"?>
<!-- Generator: Adobe Illustrator 16.0.0, SVG Export Plug-In . SVG Version: 6.00 Build 0)  -->
<!DOCTYPE svg PUBLIC "-//W3C//DTD SVG 1.1//EN" "http://www.w3.org/Graphics/SVG/1.1/DTD/svg11.dtd">
<svg version="1.1" xmlns="http://www.w3.org/2000/svg" xmlns:xlink="http://www.w3.org/1999/xlink" x="0px" y="0px" width="128px"
	 height="128px" viewBox="0 0 128 128" enable-background="new 0 0 128 128" xml:space="preserve">
<g id="圖層_1">
	<path fill="none" stroke="#C9CACA" stroke-width="10" stroke-miterlimit="10" d="M88.414,65.344c0,4.886-4.294,8.846-9.591,8.846
		H49.177c-5.298,0-9.592-3.96-9.592-8.846V18.301c0-4.886,4.294-8.846,9.592-8.846h29.646c5.297,0,9.591,3.96,9.591,8.846V65.344z"
		/>
	<path fill="#00A0E9" d="M101.343,108.52c0,6.132-5.24,11.102-11.703,11.102H38.391c-6.464,0-11.704-4.97-11.704-11.102V59.901
		c0-6.131,5.24-11.102,11.704-11.102H89.64c6.463,0,11.703,4.971,11.703,11.102V108.52z"/>
</g>
<g id="圖層_2">
	<circle fill="#FFFFFF" cx="64.015" cy="73.466" r="9.735"/>
	<path fill="#FFFFFF" d="M67.546,100.756c0,1.951-1.581,3.531-3.531,3.531l0,0c-1.95,0-3.53-1.58-3.53-3.531V80.78
		c0-1.95,1.58-3.53,3.53-3.53l0,0c1.95,0,3.531,1.58,3.531,3.53V100.756z"/>
</g>
</svg>
