<?xml version="1.0" encoding="utf-8"?>
<!-- Generator: Adobe Illustrator 16.0.0, SVG Export Plug-In . SVG Version: 6.00 Build 0)  -->
<!DOCTYPE svg PUBLIC "-//W3C//DTD SVG 1.1//EN" "http://www.w3.org/Graphics/SVG/1.1/DTD/svg11.dtd">
<svg version="1.1" id="圖層_1" xmlns="http://www.w3.org/2000/svg" xmlns:xlink="http://www.w3.org/1999/xlink" x="0px" y="0px"
	 width="256px" height="128px" viewBox="0 0 256 128" enable-background="new 0 0 256 128" xml:space="preserve">
<path fill="#E8E6EC" d="M170.5,12h-72c-22.644,0-41,19.176-41,42.831v2.089c0,5.953,1.165,11.621,3.266,16.772
	c-4.925,2.695-8.266,7.924-8.266,13.934c0,8.768,7.107,15.875,15.875,15.875c5.672,0,10.635-2.983,13.442-7.458
	c5.098,2.376,10.74,3.708,16.683,3.708h72c22.644,0,41-19.176,41-42.831v-2.089C211.5,31.176,193.144,12,170.5,12z"/>
<circle fill="#E8E6EC" cx="46.5" cy="110.75" r="9.5"/>
<circle fill="#AAA8AE" cx="105.25" cy="55.083" r="11.583"/>
<circle fill="#AAA8AE" cx="163.583" cy="55.084" r="11.583"/>
<circle fill="#C5C4CA" cx="134.417" cy="55.083" r="11.583"/>
</svg>
