<?xml version="1.0" encoding="utf-8"?>
<!-- Generator: Adobe Illustrator 16.0.0, SVG Export Plug-In . SVG Version: 6.00 Build 0)  -->
<!DOCTYPE svg PUBLIC "-//W3C//DTD SVG 1.1//EN" "http://www.w3.org/Graphics/SVG/1.1/DTD/svg11.dtd">
<svg version="1.1" id="圖層_1" xmlns="http://www.w3.org/2000/svg" xmlns:xlink="http://www.w3.org/1999/xlink" x="0px" y="0px"
	 width="128px" height="128px" viewBox="0 0 128 128" enable-background="new 0 0 128 128" xml:space="preserve">
<rect x="11.458" y="82.333" fill="#717071" width="102.833" height="29.167"/>
<polygon fill="#DBDCDC" points="95.374,41.167 29.208,41.167 11.542,82.333 114.374,82.333 "/>
<path fill="#3E3A39" d="M112.125,106.811c0,1.728-1.358,3.127-3.034,3.127H16.535c-1.676,0-3.035-1.399-3.035-3.127V87.002
	c0-1.728,1.359-3.127,3.035-3.127h92.556c1.676,0,3.034,1.399,3.034,3.127V106.811z"/>
<circle fill="#009FE8" cx="99.375" cy="96.916" r="3.708"/>
<circle fill="#1EE780" cx="96.173" cy="39.464" r="28.153"/>
<path fill="none" stroke="#FFFFFF" stroke-width="7" stroke-miterlimit="10" d="M79.84,39.247c0-8.655,7.153-15.661,15.994-15.661
	c8.655,0,15.661,7.153,15.661,15.994c0,8.658-7.154,15.662-15.993,15.662"/>
<polygon fill="#FFFFFF" points="88.115,39.247 79.84,48.19 71.564,39.247 "/>
<polyline fill="none" stroke="#FFFFFF" stroke-width="4" stroke-miterlimit="10" points="101.339,44.463 95.834,39.247 
	95.834,30.473 "/>
</svg>
