<?xml version="1.0" encoding="utf-8"?>
<!-- Generator: Adobe Illustrator 16.0.0, SVG Export Plug-In . SVG Version: 6.00 Build 0)  -->
<!DOCTYPE svg PUBLIC "-//W3C//DTD SVG 1.1//EN" "http://www.w3.org/Graphics/SVG/1.1/DTD/svg11.dtd">
<svg version="1.1" xmlns="http://www.w3.org/2000/svg" xmlns:xlink="http://www.w3.org/1999/xlink" x="0px" y="0px" width="128px"
	 height="128px" viewBox="0 0 128 128" enable-background="new 0 0 128 128" xml:space="preserve">
<g id="圖層_1">
	<rect x="11.458" y="82.333" fill="#717071" width="102.833" height="29.167"/>
	<polygon fill="#DBDCDC" points="95.374,41.167 29.208,41.167 11.542,82.333 114.374,82.333 	"/>
	<path fill="#3E3A39" d="M112.125,106.811c0,1.728-1.358,3.127-3.034,3.127H16.535c-1.676,0-3.035-1.399-3.035-3.127V87.002
		c0-1.728,1.359-3.127,3.035-3.127h92.556c1.676,0,3.034,1.399,3.034,3.127V106.811z"/>
	<circle fill="#009FE8" cx="99.375" cy="96.916" r="3.708"/>
</g>
<g id="圖層_2">
	<path fill="#F39800" d="M122.084,60.654c0,4.288-3.476,7.764-7.763,7.764H77.014c-4.288,0-7.763-3.477-7.763-7.764V23.347
		c0-4.287,3.475-7.763,7.763-7.763h37.308c4.287,0,7.763,3.476,7.763,7.763V60.654z"/>
	<path fill="#FFFFFF" d="M113.261,24.124l-0.172-0.17c-3.525-3.526-8.748-4.021-11.663-1.104l-8.713,8.712
		c-0.107,0.2-0.17,0.428-0.17,0.674c0,0.823,0.647,1.491,1.444,1.491c0.235,0,0.448-0.072,0.646-0.176l7.672-7.671
		c2.324-2.327,6.196-2.226,8.647,0.226l0.119,0.119c2.45,2.452,2.553,6.323,0.227,8.65l-8.345,8.346
		c-2.326,2.326-6.199,2.223-8.651-0.228l-0.118-0.12c-0.26-0.259-0.479-0.542-0.685-0.83c-0.015,0.022-0.025,0.046-0.04,0.068
		c-0.263-0.338-0.649-0.568-1.099-0.568c-0.795,0-1.438,0.673-1.438,1.505c0,0.301,0.105,0.564,0.251,0.8
		c-0.021,0.007-0.042,0.01-0.062,0.017c0.29,0.382,0.604,0.754,0.956,1.107l0.173,0.171c3.522,3.526,8.746,4.022,11.661,1.107
		l10.463-10.462C117.281,32.873,116.785,27.651,113.261,24.124z"/>
	<path fill="#FFFFFF" d="M78.074,58.574l0.172,0.17c3.526,3.526,8.749,4.021,11.664,1.105l8.713-8.712
		c0.106-0.2,0.169-0.428,0.169-0.674c0-0.823-0.646-1.491-1.444-1.491c-0.235,0-0.447,0.072-0.646,0.175l-7.672,7.671
		c-2.325,2.327-6.197,2.226-8.648-0.226l-0.119-0.119c-2.45-2.452-2.553-6.323-0.227-8.65l8.346-8.346
		c2.326-2.326,6.199-2.223,8.65,0.228l0.119,0.12c0.26,0.259,0.478,0.542,0.685,0.83c0.015-0.022,0.025-0.046,0.039-0.068
		c0.264,0.338,0.65,0.568,1.099,0.568c0.795,0,1.439-0.673,1.439-1.505c0-0.301-0.105-0.564-0.251-0.8
		c0.02-0.007,0.042-0.01,0.062-0.017c-0.291-0.382-0.604-0.754-0.957-1.107l-0.173-0.171c-3.522-3.526-8.746-4.022-11.661-1.107
		L76.971,46.911C74.055,49.826,74.551,55.047,78.074,58.574z"/>
</g>
</svg>
