<?xml version="1.0" encoding="utf-8"?>
<!-- Generator: Adobe Illustrator 16.0.0, SVG Export Plug-In . SVG Version: 6.00 Build 0)  -->
<!DOCTYPE svg PUBLIC "-//W3C//DTD SVG 1.1//EN" "http://www.w3.org/Graphics/SVG/1.1/DTD/svg11.dtd">
<svg version="1.1" xmlns="http://www.w3.org/2000/svg" xmlns:xlink="http://www.w3.org/1999/xlink" x="0px" y="0px" width="128px"
	 height="128px" viewBox="0 0 128 128" enable-background="new 0 0 128 128" xml:space="preserve">
<g id="圖層_1">
	<rect x="11.458" y="82.333" fill="#717071" width="102.833" height="29.167"/>
	<polygon fill="#DBDCDC" points="95.374,41.167 29.208,41.167 11.542,82.333 114.374,82.333 	"/>
	<path fill="#3E3A39" d="M112.125,106.811c0,1.728-1.358,3.127-3.034,3.127H16.535c-1.676,0-3.035-1.399-3.035-3.127V87.002
		c0-1.728,1.359-3.127,3.035-3.127h92.556c1.676,0,3.034,1.399,3.034,3.127V106.811z"/>
	<circle fill="#009FE8" cx="99.375" cy="96.916" r="3.708"/>
</g>
<g id="圖層_2">
	<path fill="#00A0E9" d="M122.084,60.654c0,4.288-3.476,7.764-7.763,7.764H77.014c-4.288,0-7.763-3.477-7.763-7.764V23.347
		c0-4.287,3.475-7.763,7.763-7.763h37.308c4.287,0,7.763,3.476,7.763,7.763V60.654z"/>
	<circle fill="#FFFFFF" cx="85.547" cy="33.868" r="6.893"/>
	<path fill="#FFFFFF" d="M85.167,56.026c5.583,0,10.104-0.762,10.104-1.706c0-7.271-3.032-13.154-6.776-13.154
		c0,1.119-1.371,2.024-3.069,2.024c-1.615,0-2.921-0.905-2.921-2.024c-3.69,0-6.679,5.883-6.679,13.154
		c0,0.944,4.211,1.706,9.412,1.706"/>
	<circle fill="#FFFFFF" cx="106.66" cy="33.868" r="6.893"/>
	<path fill="#FFFFFF" d="M106.281,56.026c5.582,0,10.103-0.763,10.103-1.706c0-7.271-3.032-13.154-6.776-13.154
		c0,1.119-1.371,2.024-3.069,2.024c-1.614,0-2.921-0.905-2.921-2.024c-3.69,0-6.679,5.883-6.679,13.154
		c0,0.943,4.211,1.706,9.412,1.706"/>
</g>
</svg>
