<?xml version="1.0" encoding="utf-8"?>
<!-- Generator: Adobe Illustrator 16.0.0, SVG Export Plug-In . SVG Version: 6.00 Build 0)  -->
<!DOCTYPE svg PUBLIC "-//W3C//DTD SVG 1.1//EN" "http://www.w3.org/Graphics/SVG/1.1/DTD/svg11.dtd">
<svg version="1.1" xmlns="http://www.w3.org/2000/svg" xmlns:xlink="http://www.w3.org/1999/xlink" x="0px" y="0px" width="128px"
	 height="128px" viewBox="0 0 128 128" enable-background="new 0 0 128 128" xml:space="preserve">
<g id="圖層_1">
	<rect x="11.458" y="82.333" fill="#717071" width="102.833" height="29.167"/>
	<polygon fill="#DBDCDC" points="95.374,41.167 29.208,41.167 11.542,82.333 114.374,82.333 	"/>
	<path fill="#3E3A39" d="M112.125,106.811c0,1.728-1.358,3.127-3.034,3.127H16.535c-1.676,0-3.035-1.399-3.035-3.127V87.002
		c0-1.728,1.359-3.127,3.035-3.127h92.556c1.676,0,3.034,1.399,3.034,3.127V106.811z"/>
	<circle fill="#009FE8" cx="99.375" cy="96.916" r="3.708"/>
</g>
<g id="圖層_2">
	<circle fill="#00A0E9" cx="94.188" cy="25.456" r="14.188"/>
	<path fill="#00A0E9" d="M93.405,71.064c11.494,0,20.794-1.57,20.794-3.512c0-14.966-6.236-27.077-13.944-27.077
		c0,2.303-2.826,4.167-6.318,4.167c-3.324,0-6.015-1.864-6.015-4.167c-7.598,0-13.746,12.11-13.746,27.077
		c0,1.941,8.665,3.512,19.374,3.512"/>
</g>
</svg>
