<?xml version="1.0" encoding="utf-8"?>
<!-- Generator: Adobe Illustrator 16.0.0, SVG Export Plug-In . SVG Version: 6.00 Build 0)  -->
<!DOCTYPE svg PUBLIC "-//W3C//DTD SVG 1.1//EN" "http://www.w3.org/Graphics/SVG/1.1/DTD/svg11.dtd">
<svg version="1.1" xmlns="http://www.w3.org/2000/svg" xmlns:xlink="http://www.w3.org/1999/xlink" x="0px" y="0px" width="128px"
	 height="128px" viewBox="0 0 128 128" enable-background="new 0 0 128 128" xml:space="preserve">
<g id="圖層_2">
	<polygon points="110.998,23.424 110.998,84.064 17.001,84.064 17.001,13.652 48.449,13.469 55.315,23.669 	"/>
</g>
<g id="圖層_3">
	<polygon fill="#3E3A39" points="110.998,84.064 17.001,84.064 17.087,31.401 110.57,31.401 	"/>
	<g>
		<path fill="#FFFFFF" d="M41.777,55.843l7.216-2.331l5.772-1.998v-0.148l-5.772-1.999l-7.216-2.331v-5.402l19.648,7.548v4.515
			l-19.648,7.548V55.843z"/>
		<path fill="#FFFFFF" d="M63.385,67.869h20.128v3.662H63.385V67.869z"/>
	</g>
</g>
<g id="圖層_4">
	<rect x="17.001" y="103.51" fill="#443F5D" width="93.997" height="4.691"/>
	<rect x="60.985" y="84.064" fill="#443F5D" width="6.029" height="19.445"/>
	<path fill="#55516E" d="M72.935,110.512c0,2.221-1.8,4.02-4.021,4.02h-9.827c-2.221,0-4.021-1.799-4.021-4.02v-9.828
		c0-2.221,1.8-4.021,4.021-4.021h9.827c2.221,0,4.021,1.801,4.021,4.021V110.512z"/>
</g>
</svg>
