<?xml version="1.0" encoding="utf-8"?>
<!-- Generator: Adobe Illustrator 16.0.0, SVG Export Plug-In . SVG Version: 6.00 Build 0)  -->
<!DOCTYPE svg PUBLIC "-//W3C//DTD SVG 1.1//EN" "http://www.w3.org/Graphics/SVG/1.1/DTD/svg11.dtd">
<svg version="1.1" id="圖層_1" xmlns="http://www.w3.org/2000/svg" xmlns:xlink="http://www.w3.org/1999/xlink" x="0px" y="0px"
	 width="128px" height="128px" viewBox="0 0 128 128" enable-background="new 0 0 128 128" xml:space="preserve">
<g id="圖層_2">
	<polygon fill="#DBAC50" points="110.998,23.424 110.998,84.064 17.001,84.064 17.001,13.652 48.449,13.469 55.315,23.669 	"/>
</g>
<g id="圖層_3">
	<polygon fill="#E5BD64" points="110.998,84.064 17.001,84.064 17.087,31.401 110.57,31.401 	"/>
</g>
<g id="圖層_4">
	<rect x="17.001" y="103.51" fill="#443F5D" width="93.997" height="4.691"/>
	<rect x="60.985" y="84.064" fill="#443F5D" width="6.029" height="19.445"/>
	<path fill="#55516E" d="M72.936,110.512c0,2.221-1.801,4.02-4.021,4.02h-9.827c-2.221,0-4.021-1.799-4.021-4.02v-9.828
		c0-2.221,1.8-4.021,4.021-4.021h9.827c2.221,0,4.021,1.801,4.021,4.021V110.512z"/>
</g>
<g>
	<path fill="#FFFFFF" d="M51.275,75.102c1.564,1.273,3.406,1.911,5.524,1.911c2.707,0,4.061-0.927,4.061-2.782
		c0-0.535-0.149-1.02-0.448-1.449c-0.299-0.432-0.701-0.807-1.207-1.128c-0.505-0.32-1.505-0.837-2.999-1.549
		c-1.837-0.879-3.12-1.771-3.85-2.677c-0.729-0.904-1.094-1.969-1.094-3.19c0-1.758,0.694-3.142,2.083-4.153
		s3.164-1.516,5.326-1.516c2.048,0,3.595,0.25,4.641,0.751v3.243c-1.257-0.87-2.826-1.305-4.707-1.305
		c-1.204,0-2.175,0.242-2.914,0.725s-1.107,1.147-1.107,1.991c0,0.764,0.27,1.393,0.811,1.885c0.54,0.492,1.681,1.151,3.421,1.978
		c2.03,0.949,3.432,1.901,4.206,2.854s1.16,2.05,1.16,3.289c0,1.846-0.668,3.256-2.004,4.232c-1.336,0.975-3.186,1.463-5.55,1.463
		c-0.87,0-1.837-0.105-2.9-0.316s-1.881-0.492-2.452-0.844V75.102z"/>
	<path fill="#FFFFFF" d="M86.541,79.333V66.149c0-1.151,0.062-2.518,0.185-4.1h-0.079c-0.264,1.134-0.471,1.876-0.619,2.228
		l-6.21,15.056h-2.069l-6.236-14.937c-0.158-0.378-0.365-1.16-0.619-2.347h-0.08c0.088,1.23,0.133,2.716,0.133,4.457v12.827h-2.94
		V58.912h4.417l5.523,13.487c0.431,1.055,0.716,1.93,0.857,2.623h0.092c0.167-0.553,0.475-1.441,0.923-2.662l5.616-13.448h4.245
		v20.421H86.541z"/>
	<path fill="#FFFFFF" d="M94.794,79.333V58.912h6.381c1.925,0,3.443,0.426,4.555,1.279c1.112,0.853,1.668,2,1.668,3.441
		c0,1.125-0.339,2.114-1.015,2.966c-0.678,0.853-1.569,1.45-2.677,1.793v0.053c1.389,0.158,2.507,0.682,3.355,1.568
		c0.848,0.889,1.272,2.014,1.272,3.375c0,1.775-0.636,3.211-1.905,4.305c-1.271,1.095-2.946,1.642-5.03,1.642H94.794z
		 M97.958,61.509v5.972h2.294c1.204,0,2.14-0.289,2.809-0.869c0.667-0.58,1.002-1.376,1.002-2.387c0-1.811-1.24-2.716-3.719-2.716
		H97.958z M97.958,70.092v6.645h2.979c1.292,0,2.294-0.299,3.006-0.896s1.068-1.429,1.068-2.492c0-2.171-1.464-3.256-4.391-3.256
		H97.958z"/>
</g>
</svg>
