<?xml version="1.0" encoding="utf-8"?>
<!-- Generator: Adobe Illustrator 16.0.0, SVG Export Plug-In . SVG Version: 6.00 Build 0)  -->
<!DOCTYPE svg PUBLIC "-//W3C//DTD SVG 1.1//EN" "http://www.w3.org/Graphics/SVG/1.1/DTD/svg11.dtd">
<svg version="1.1" xmlns="http://www.w3.org/2000/svg" xmlns:xlink="http://www.w3.org/1999/xlink" x="0px" y="0px" width="128px"
	 height="128px" viewBox="0 0 128 128" enable-background="new 0 0 128 128" xml:space="preserve">
<g id="圖層_2">
</g>
<g id="圖層_3">
</g>
<g id="圖層_4">
	<rect x="17.001" y="103.51" fill="#595757" width="93.997" height="4.691"/>
	<rect x="60.985" y="84.064" fill="#595757" width="6.029" height="19.445"/>
	<path fill="#C9CACA" d="M72.935,110.512c0,2.221-1.8,4.02-4.021,4.02h-9.827c-2.221,0-4.021-1.799-4.021-4.02v-9.828
		c0-2.221,1.8-4.021,4.021-4.021h9.827c2.221,0,4.021,1.801,4.021,4.021V110.512z"/>
</g>
<g id="圖層_5">
	<rect x="30.333" y="15.084" fill="#DCDDDD" width="25.333" height="25.333"/>
	<polygon fill="#EFEFEF" points="50.287,13.125 27.917,35.495 27.917,94.666 100.084,94.666 100.084,13.125 	"/>
	<rect x="41.039" y="44.594" fill="#679AD2" width="39.5" height="6.875"/>
	<rect x="41.039" y="56.094" fill="#679AD2" width="39.5" height="6.875"/>
	<rect x="41.039" y="68.781" fill="#679AD2" width="39.5" height="6.875"/>
	<rect x="41.039" y="80.281" fill="#679AD2" width="39.5" height="6.875"/>
	<rect x="41.039" y="29.25" width="51.952" height="9.083"/>
</g>
</svg>
