<?xml version="1.0" encoding="utf-8"?>
<!-- Generator: Adobe Illustrator 16.0.0, SVG Export Plug-In . SVG Version: 6.00 Build 0)  -->
<!DOCTYPE svg PUBLIC "-//W3C//DTD SVG 1.1//EN" "http://www.w3.org/Graphics/SVG/1.1/DTD/svg11.dtd">
<svg version="1.1" xmlns="http://www.w3.org/2000/svg" xmlns:xlink="http://www.w3.org/1999/xlink" x="0px" y="0px" width="128px"
	 height="128px" viewBox="0 0 128 128" enable-background="new 0 0 128 128" xml:space="preserve">
<g id="圖層_2">
	<polygon fill="#DBAC50" points="110.998,23.424 110.998,84.064 17.001,84.064 17.001,13.652 48.449,13.469 55.315,23.669 	"/>
</g>
<g id="圖層_3">
	<polygon fill="#E5BD64" points="110.998,84.064 17.001,84.064 17.087,31.401 110.57,31.401 	"/>
</g>
<g id="圖層_4">
	<rect x="17.001" y="103.51" fill="#443F5D" width="93.997" height="4.691"/>
	<rect x="60.985" y="84.064" fill="#443F5D" width="6.029" height="19.445"/>
	<path fill="#55516E" d="M72.935,110.512c0,2.221-1.8,4.02-4.021,4.02h-9.827c-2.221,0-4.021-1.799-4.021-4.02v-9.828
		c0-2.221,1.8-4.021,4.021-4.021h9.827c2.221,0,4.021,1.801,4.021,4.021V110.512z"/>
</g>
<g id="圖層_5">
	<path fill="#F7CB5D" d="M54.316,96.26c0,1.657-1.343,3-3,3H16.149c-1.657,0-3-1.343-3-3V70.927c0-1.657,1.343-3,3-3h35.167
		c1.657,0,3,1.343,3,3V96.26z"/>
	<path fill="none" stroke="#DCDDDD" stroke-width="4" stroke-miterlimit="10" d="M23.566,72.684V56.35
		c0-4.928,4.547-8.917,10.167-8.917c5.527,0,10,3.988,10,8.917v16.333"/>
	<path fill="#F7DB78" d="M49.066,96.257c0,1.657-1.536,3-3.43,3H15.913c-1.894,0-3.43-1.343-3.43-3v-25.33c0-1.657,1.536-3,3.43-3
		h29.724c1.894,0,3.43,1.343,3.43,3V96.257z"/>
	<path fill="#55516E" d="M35.399,88.049c0,0.897-0.728,1.625-1.625,1.625l0,0c-0.897,0-1.625-0.728-1.625-1.625v-7
		c0-0.897,0.728-1.625,1.625-1.625l0,0c0.897,0,1.625,0.728,1.625,1.625V88.049z"/>
</g>
</svg>
