<?xml version="1.0" encoding="utf-8"?>
<!-- Generator: Adobe Illustrator 16.0.0, SVG Export Plug-In . SVG Version: 6.00 Build 0)  -->
<!DOCTYPE svg PUBLIC "-//W3C//DTD SVG 1.1//EN" "http://www.w3.org/Graphics/SVG/1.1/DTD/svg11.dtd">
<svg version="1.1" xmlns="http://www.w3.org/2000/svg" xmlns:xlink="http://www.w3.org/1999/xlink" x="0px" y="0px" width="128px"
	 height="128px" viewBox="0 0 128 128" enable-background="new 0 0 128 128" xml:space="preserve">
<g id="圖層_1">
	<line fill="none" stroke="#231815" stroke-width="8" stroke-miterlimit="10" x1="26.875" y1="47.875" x2="95.25" y2="47.875"/>
	<line fill="none" stroke="#231815" stroke-width="8" stroke-miterlimit="10" x1="31.25" y1="80.125" x2="101.188" y2="80.125"/>
	<polygon fill="#231815" stroke="#231815" stroke-width="4" stroke-miterlimit="10" points="90.299,38.607 102.2,47.875 
		90.299,57.143 	"/>
	<polygon fill="#231815" stroke="#231815" stroke-width="4" stroke-miterlimit="10" points="38.776,89.393 26.875,80.125 
		38.776,70.857 	"/>
</g>
<g id="圖層_2">
	<path fill="#231815" stroke="#FFFFFF" stroke-width="2" stroke-miterlimit="10" d="M108.305,89.832c0,1.887-1.47,3.417-3.285,3.417
		H89.84c-1.815,0-3.285-1.53-3.285-3.417V78.986c0-1.887,1.47-3.417,3.285-3.417h15.18c1.815,0,3.285,1.53,3.285,3.417V89.832z"/>
	<path fill="none" stroke="#231815" stroke-width="3" stroke-miterlimit="10" d="M104.388,78.206v-7.458
		c0-3.132-2.629-5.666-6.958-5.666c-3.478,0-7.167,2.534-7.167,5.666v7.458"/>
	<line fill="none" stroke="#231815" stroke-width="3" stroke-miterlimit="10" x1="90.732" y1="68.595" x2="90.734" y2="68.596"/>
</g>
</svg>
