<?xml version="1.0" encoding="utf-8"?>
<!-- Generator: Adobe Illustrator 16.0.0, SVG Export Plug-In . SVG Version: 6.00 Build 0)  -->
<!DOCTYPE svg PUBLIC "-//W3C//DTD SVG 1.1//EN" "http://www.w3.org/Graphics/SVG/1.1/DTD/svg11.dtd">
<svg version="1.1" id="圖層_1" xmlns="http://www.w3.org/2000/svg" xmlns:xlink="http://www.w3.org/1999/xlink" x="0px" y="0px"
	 width="128px" height="128px" viewBox="0 0 128 128" enable-background="new 0 0 128 128" xml:space="preserve">
<path fill="#E99415" d="M124.709,107.196c0,9.773-7.924,17.699-17.697,17.699H21.962c-9.776,0-17.697-7.926-17.697-17.699V22.147
	c0-9.773,7.921-17.698,17.697-17.698h85.049c9.773,0,17.697,7.924,17.697,17.698V107.196z"/>
<path fill="#FFFFFF" d="M104.595,23.919l-0.393-0.389c-8.036-8.038-19.942-9.166-26.588-2.518l-19.863,19.86
	c-0.245,0.455-0.387,0.975-0.387,1.537c0,1.877,1.476,3.399,3.292,3.399c0.537,0,1.022-0.165,1.474-0.4l17.49-17.488
	c5.299-5.304,14.126-5.074,19.714,0.514l0.271,0.271c5.586,5.589,5.819,14.415,0.517,19.719L81.099,67.453
	c-5.304,5.301-14.133,5.067-19.723-0.521l-0.27-0.272c-0.592-0.592-1.091-1.236-1.561-1.893c-0.033,0.05-0.058,0.105-0.091,0.154
	c-0.599-0.771-1.48-1.294-2.504-1.294c-1.813,0-3.279,1.535-3.279,3.432c0,0.686,0.24,1.287,0.572,1.823
	c-0.047,0.018-0.096,0.022-0.141,0.04c0.661,0.87,1.376,1.719,2.18,2.524l0.394,0.388c8.03,8.041,19.938,9.17,26.583,2.524
	l23.853-23.851C113.76,43.863,112.629,31.959,104.595,23.919z"/>
<path fill="#FFFFFF" d="M24.38,102.455l0.392,0.387c8.039,8.039,19.945,9.168,26.591,2.521L71.225,85.5
	c0.243-0.454,0.386-0.976,0.386-1.536c0-1.877-1.474-3.397-3.293-3.397c-0.536,0-1.02,0.162-1.472,0.398L49.356,98.452
	c-5.301,5.305-14.128,5.076-19.716-0.513l-0.271-0.271c-5.586-5.59-5.82-14.417-0.517-19.72l19.025-19.027
	c5.303-5.302,14.132-5.068,19.721,0.52l0.271,0.272c0.592,0.591,1.089,1.236,1.561,1.893c0.033-0.05,0.058-0.106,0.089-0.155
	c0.602,0.771,1.482,1.294,2.505,1.294c1.812,0,3.281-1.535,3.281-3.432c0-0.686-0.24-1.287-0.572-1.825
	c0.045-0.016,0.096-0.022,0.141-0.039c-0.664-0.87-1.378-1.72-2.182-2.523l-0.395-0.389c-8.03-8.038-19.938-9.169-26.583-2.524
	l-23.85,23.85C15.217,82.512,16.348,94.413,24.38,102.455z"/>
</svg>
