<?xml version="1.0" encoding="utf-8"?>
<!-- Generator: Adobe Illustrator 16.0.0, SVG Export Plug-In . SVG Version: 6.00 Build 0)  -->
<!DOCTYPE svg PUBLIC "-//W3C//DTD SVG 1.1//EN" "http://www.w3.org/Graphics/SVG/1.1/DTD/svg11.dtd">
<svg version="1.1" xmlns="http://www.w3.org/2000/svg" xmlns:xlink="http://www.w3.org/1999/xlink" x="0px" y="0px" width="128px"
	 height="128px" viewBox="0 0 128 128" enable-background="new 0 0 128 128" xml:space="preserve">
<g id="圖層_2">
	<path fill="#595757" d="M126,120.667c0,3.313-2.687,6-6,6H7.5c-3.313,0-6-2.687-6-6v-113c0-3.313,2.687-6,6-6H120
		c3.313,0,6,2.687,6,6V120.667z"/>
</g>
<g id="圖層_1">
	<circle fill="#FFFFFF" cx="65" cy="42.483" r="20.033"/>
	<path fill="#FFFFFF" d="M63.895,106.882c16.229,0,29.361-2.217,29.361-4.959c0-21.133-8.806-38.231-19.689-38.231
		c0,3.251-3.989,5.883-8.921,5.883c-4.693,0-8.492-2.632-8.492-5.883c-10.728,0-19.41,17.099-19.41,38.231
		c0,2.742,12.235,4.959,27.355,4.959"/>
</g>
</svg>
