<svg xmlns="http://www.w3.org/2000/svg" height="40px" viewBox="0 -960 960 960" width="40px" fill="#434343"><path d="M48.67-117.67v-129.82q0-40.91 22.11-76.48Q92.9-359.55 131-378q65-30 132.5-46.5T396.67-441q29.33 0 73.33 5.5t75.67 13.5L455-331.67q-15.26-2.66-29.8-3.33-14.53-.67-28.53-.67-58.85 0-109.76 12.67-50.91 12.67-105.34 35.83-14.44 7.12-21.34 18.84-6.9 11.73-6.9 25v21H428l104.67 104.66h-484Zm597.66-2-149-149.66L553-324l93.33 93.33L855.67-440 912-385.33 646.33-119.67ZM266.7-547.03q-51.37-51.36-51.37-129.83 0-78.47 51.37-129.81Q318.06-858 396.53-858q78.47 0 130.3 51.33 51.84 51.34 51.84 129.81t-51.84 129.83q-51.83 51.36-130.3 51.36-78.47 0-129.83-51.36ZM428-222.33Zm23.33-399.99q22-22 22-55 0-33.01-21.85-54.51t-54.67-21.5q-32.81 0-54.81 21.52-22 21.53-22 54.54t21.85 54.97q21.85 21.97 54.67 21.97 32.81 0 54.81-21.99ZM396.67-677Z"/></svg>