<svg xmlns="http://www.w3.org/2000/svg" height="40px" viewBox="0 -960 960 960" width="40px" fill="#434343"><path d="M196.67-253.33q58-50.67 127.5-80.34 69.5-29.66 155.83-29.66 86.33 0 155.83 28.66 69.5 28.67 127.5 79.34v-508H196.67v510Zm388-199.26q42-41.91 42-103.33 0-61.41-41.92-102.91t-103.34-41.5q-61.41 0-103.41 41.42t-42 102.83q0 61.41 41.92 103.41t103.33 42q61.42 0 103.42-41.92ZM196.67-92q-43.7 0-74.19-30.48Q92-152.97 92-196.67v-566.66q0-43.98 30.48-74.66 30.49-30.68 74.19-30.68h566.66q43.98 0 74.66 30.68t30.68 74.66v566.66q0 43.7-30.68 74.19Q807.31-92 763.33-92H196.67Zm53.66-104.67H711Q656.33-243 599.83-263.33q-56.5-20.34-119.83-20.34t-118.83 20.34q-55.5 20.33-110.84 66.66ZM435-509.19q-19-19.52-19-46.83t19.31-46.31q19.32-19 46.34-19 27.02 0 46.02 19.31 19 19.31 19 46.33t-19.32 46.52q-19.31 19.5-46.33 19.5T435-509.19Zm45 .19Z"/></svg>