<?xml version="1.0" encoding="utf-8"?>
<!-- Generator: Adobe Illustrator 16.0.0, SVG Export Plug-In . SVG Version: 6.00 Build 0)  -->
<!DOCTYPE svg PUBLIC "-//W3C//DTD SVG 1.1//EN" "http://www.w3.org/Graphics/SVG/1.1/DTD/svg11.dtd">
<svg version="1.1" xmlns="http://www.w3.org/2000/svg" xmlns:xlink="http://www.w3.org/1999/xlink" x="0px" y="0px" width="128px"
	 height="128px" viewBox="0 0 128 128" enable-background="new 0 0 128 128" xml:space="preserve">
<g id="圖層_2">
	<circle fill="#00A0E9" stroke="#FFFFFF" stroke-miterlimit="10" cx="97.083" cy="47.867" r="15.248"/>
	<path fill="#00A0E9" stroke="#FFFFFF" stroke-miterlimit="10" d="M96.241,96.882c12.353,0,22.348-1.688,22.348-3.774
		c0-16.084-6.702-29.099-14.986-29.099c0,2.476-3.037,4.478-6.79,4.478c-3.572,0-6.464-2.002-6.464-4.478
		c-8.165,0-14.772,13.015-14.772,29.099c0,2.087,9.313,3.774,20.82,3.774"/>
	<circle fill="#00A0E9" stroke="#FFFFFF" stroke-miterlimit="10" cx="31.583" cy="45.632" r="15.248"/>
	<path fill="#00A0E9" stroke="#FFFFFF" stroke-miterlimit="10" d="M30.742,94.646c12.353,0,22.348-1.688,22.348-3.773
		c0-16.084-6.702-29.1-14.986-29.1c0,2.476-3.037,4.479-6.79,4.479c-3.572,0-6.464-2.003-6.464-4.479
		c-8.165,0-14.772,13.016-14.772,29.1c0,2.086,9.313,3.773,20.82,3.773"/>
</g>
<g id="圖層_1">
	<circle fill="#00A0E9" stroke="#FFFFFF" stroke-width="3" stroke-miterlimit="10" cx="64" cy="42.483" r="20.033"/>
	<path fill="#00A0E9" stroke="#FFFFFF" stroke-width="3" stroke-miterlimit="10" d="M62.895,106.882
		c16.229,0,29.361-2.217,29.361-4.959c0-21.133-8.806-38.231-19.689-38.231c0,3.252-3.99,5.883-8.922,5.883
		c-4.693,0-8.492-2.631-8.492-5.883c-10.728,0-19.41,17.099-19.41,38.231c0,2.742,12.235,4.959,27.355,4.959"/>
</g>
</svg>
