<?xml version="1.0" encoding="utf-8"?>
<!-- Generator: Adobe Illustrator 16.0.0, SVG Export Plug-In . SVG Version: 6.00 Build 0)  -->
<!DOCTYPE svg PUBLIC "-//W3C//DTD SVG 1.1//EN" "http://www.w3.org/Graphics/SVG/1.1/DTD/svg11.dtd">
<svg version="1.1" id="圖層_1" xmlns="http://www.w3.org/2000/svg" xmlns:xlink="http://www.w3.org/1999/xlink" x="0px" y="0px"
	 width="48px" height="48px" viewBox="0 0 48 48" enable-background="new 0 0 48 48" xml:space="preserve">
<path opacity="0.5" fill="#FFFFFF" d="M11.3,39.4c-0.767,0-1.408-0.259-1.925-0.775S8.6,37.467,8.6,36.7V11.3
	c0-0.767,0.258-1.408,0.775-1.925S10.533,8.6,11.3,8.6h25.4c0.767,0,1.408,0.258,1.925,0.775S39.4,10.533,39.4,11.3v25.4
	c0,0.767-0.259,1.408-0.775,1.925S37.467,39.4,36.7,39.4H11.3z M11.3,38.3h25.4c0.399,0,0.767-0.167,1.1-0.5s0.5-0.7,0.5-1.1V11.3
	c0-0.4-0.167-0.767-0.5-1.1c-0.333-0.333-0.7-0.5-1.1-0.5H11.3c-0.4,0-0.767,0.167-1.1,0.5c-0.333,0.333-0.5,0.7-0.5,1.1v25.4
	c0,0.399,0.167,0.767,0.5,1.1C10.533,38.133,10.9,38.3,11.3,38.3z"/>
</svg>
